<svg width="38" height="24" viewBox="0 0 38 24" fill="none" xmlns="http://www.w3.org/2000/svg">
<g clip-path="url(#clip0_1013_1482)">
<path opacity="0.07" d="M35 0H3C1.3 0 0 1.3 0 3V21C0 22.7 1.4 24 3 24H35C36.7 24 38 22.7 38 21V3C38 1.3 36.6 0 35 0Z" fill="black"/>
<path d="M35 1C36.1 1 37 1.9 37 3V21C37 22.1 36.1 23 35 23H3C1.9 23 1 22.1 1 21V3C1 1.9 1.9 1 3 1H35Z" fill="white"/>
<path d="M14 6.91V19H19.65C24.78 19 27 16.3 27 12.49C27 8.83 24.78 6 19.65 6H14.98C14.44 6 14 6.41 14 6.91Z" fill="#CC0066"/>
<path d="M19.31 21H10.43C9.64 21 9 20.37 9 19.6V5.4C9 4.63 9.64 4 10.43 4H19.31C27.74 4 29 9.32 29 12.48C29 17.97 25.56 21 19.31 21ZM10.43 4.47C10.05 4.47 9.7 4.69 9.55 5.04C9.5 5.15 9.48 5.28 9.48 5.4V19.6C9.48 19.98 9.72 20.32 10.07 20.47C10.18 20.52 10.31 20.54 10.43 20.54H19.31C25.25 20.54 28.52 17.68 28.52 12.49C28.52 5.52 22.75 4.47 19.31 4.47H10.43Z" fill="black"/>
<path d="M16.25 11.01C16.44 11.01 16.61 11.04 16.78 11.1C16.95 11.16 17.08 11.25 17.21 11.37C17.33 11.5 17.42 11.65 17.49 11.83C17.56 12.01 17.59 12.23 17.59 12.48C17.59 12.7 17.56 12.9 17.51 13.08C17.46 13.25 17.38 13.42 17.26 13.56C17.15 13.69 17.01 13.8 16.85 13.88C16.67 13.96 16.47 14 16.26 14H15V11L16.25 11.01ZM16.21 13.45C16.3 13.45 16.39 13.43 16.49 13.4C16.58 13.37 16.66 13.32 16.72 13.25C16.79 13.17 16.85 13.07 16.89 12.97C16.93 12.85 16.96 12.72 16.96 12.55C16.96 12.4 16.95 12.26 16.92 12.15C16.89 12.04 16.84 11.93 16.77 11.84C16.7 11.75 16.61 11.68 16.51 11.64C16.38 11.59 16.25 11.57 16.11 11.57H15.65V13.46L16.21 13.45ZM20.2 11.01V11.56H18.65V12.2H20.08V12.71H18.65V13.44H20.23V13.99H18V11L20.2 11.01ZM22.42 11.01L23.52 14H22.85L22.63 13.34H21.53L21.29 14H20.64L21.75 11.01C21.74 11.01 22.42 11.01 22.42 11.01ZM22.45 12.84L22.08 11.74H22.07L21.69 12.84H22.45ZM24.57 11.01V13.45H26V14H23.92V11.01H24.57Z" fill="white"/>
<path d="M11.5 13.65C12.33 13.65 13 13.06 13 12.32C13 11.59 12.33 10.99 11.5 10.99C10.67 10.99 10 11.59 10 12.33C10 13.07 10.67 13.65 11.5 13.65ZM12.63 19C11.37 19 10.36 18.1 10.36 16.99V15.42C10.37 15.14 10.49 14.88 10.7 14.7C10.91 14.51 11.2 14.41 11.5 14.41C11.65 14.41 11.79 14.43 11.93 14.48C12.07 14.53 12.19 14.6 12.3 14.7C12.41 14.79 12.49 14.9 12.55 15.03C12.61 15.15 12.64 15.28 12.64 15.42L12.63 19Z" fill="black"/>
</g>
<defs>
<clipPath id="clip0_1013_1482">
<rect width="38" height="24" fill="white"/>
</clipPath>
</defs>
</svg>
