<svg width="38" height="24" viewBox="0 0 38 24" fill="none" xmlns="http://www.w3.org/2000/svg">
<g clip-path="url(#clip0_1013_1448)">
<path opacity="0.07" d="M35 0H3C1.3 0 0 1.3 0 3V21C0 22.7 1.4 24 3 24H35C36.7 24 38 22.7 38 21V3C38 1.3 36.6 0 35 0Z" fill="black"/>
<path d="M35 1C36.1 1 37 1.9 37 3V21C37 22.1 36.1 23 35 23H3C1.9 23 1 22.1 1 21V3C1 1.9 1.9 1 3 1H35Z" fill="white"/>
<path d="M4.69965 3.08008H33.2996C33.4396 3.08008 33.5796 3.10008 33.6996 3.15008C33.8296 3.20008 33.9396 3.26008 34.0396 3.34008C34.1397 3.42008 34.2097 3.52008 34.2696 3.63008C34.3196 3.74008 34.3496 3.85008 34.3496 3.97008V20.0301C34.3496 20.2801 34.2297 20.5101 34.0396 20.6601C33.8297 20.8301 33.5597 20.9201 33.2896 20.9201H4.69965C4.55965 20.9201 4.42965 20.9001 4.28965 20.8501C4.15965 20.8101 4.04965 20.7401 3.94965 20.6601C3.84965 20.5801 3.77965 20.4801 3.71965 20.3701C3.66965 20.2601 3.63965 20.1501 3.63965 20.0301V3.97008C3.63965 3.85008 3.66965 3.74008 3.71965 3.63008C3.77965 3.52008 3.84965 3.42008 3.94965 3.34008C4.04965 3.26008 4.15965 3.19008 4.28965 3.15008C4.42965 3.10008 4.56965 3.08008 4.69965 3.08008Z" fill="white"/>
<path d="M6.37988 18.5605V15.4805H7.50988C8.32988 15.4805 8.84988 15.7405 8.84988 16.2805C8.84988 16.5805 8.67988 16.7905 8.44988 16.9205C8.78988 17.0505 8.98988 17.3105 8.98988 17.6505C8.98988 18.2705 8.44988 18.5605 7.61988 18.5605H6.37988ZM7.09988 16.7605H7.63988C7.96988 16.7605 8.10988 16.6205 8.10988 16.3705C8.10988 16.1005 7.84988 16.0105 7.50988 16.0105H7.09988V16.7605ZM7.09988 18.0305H7.54988C7.98988 18.0305 8.23988 17.9405 8.23988 17.6505C8.23988 17.3605 8.01988 17.2505 7.60988 17.2505H7.09988V18.0305ZM10.3899 18.6105C9.67988 18.6105 9.31988 18.3105 9.31988 17.9205C9.31988 17.4805 9.73988 17.2305 10.3699 17.2305C10.5299 17.2305 10.6799 17.2405 10.8299 17.2605V17.1605C10.8299 16.8905 10.6499 16.7605 10.2999 16.7605C10.0699 16.7605 9.82988 16.7905 9.60988 16.8605L9.47988 16.3905C9.76988 16.3005 10.0799 16.2605 10.3799 16.2605C11.1499 16.2605 11.5299 16.6005 11.5299 17.2005V18.4205C11.3099 18.5105 10.9099 18.6105 10.3899 18.6105ZM10.8299 18.1205V17.6505C10.7099 17.6305 10.5799 17.6105 10.4599 17.6105C10.2199 17.6105 10.0299 17.6905 10.0299 17.9005C10.0299 18.0805 10.1899 18.1805 10.4599 18.1805C10.5899 18.1805 10.7099 18.1605 10.8299 18.1205ZM12.0299 18.5605V16.4505C12.4099 16.3205 12.8099 16.2605 13.2099 16.2605C13.9699 16.2605 14.4099 16.5805 14.4099 17.1605V18.5605H13.6899V17.2105C13.6899 16.9105 13.5199 16.7705 13.2099 16.7705C13.0499 16.7705 12.8999 16.7905 12.7499 16.8505V18.5705H12.0299V18.5605ZM16.9199 16.4005L16.7799 16.8805C16.5899 16.8105 16.3899 16.7705 16.1899 16.7705C15.7699 16.7705 15.5399 17.0205 15.5399 17.4305C15.5399 17.8805 15.7799 18.1105 16.2299 18.1105C16.4299 18.1105 16.6299 18.0705 16.8099 18.0005L16.9199 18.4905C16.6799 18.5805 16.4299 18.6205 16.1699 18.6205C15.3099 18.6205 14.8099 18.1705 14.8099 17.4505C14.8099 16.7405 15.2999 16.2705 16.1299 16.2705C16.3999 16.2605 16.6699 16.3105 16.9199 16.4005ZM18.4699 18.6105C17.6699 18.6105 17.1699 18.1405 17.1699 17.4305C17.1699 16.7305 17.6699 16.2605 18.4699 16.2605C19.2799 16.2605 19.7699 16.7305 19.7699 17.4305C19.7699 18.1405 19.2799 18.6205 18.4699 18.6105ZM18.4699 18.1105C18.8399 18.1105 19.0299 17.8505 19.0299 17.4305C19.0299 17.0205 18.8399 16.7605 18.4699 16.7605C18.1099 16.7605 17.8999 17.0205 17.8999 17.4305C17.8999 17.8505 18.0999 18.1105 18.4699 18.1105ZM20.1799 18.5605V16.4505C20.5599 16.3205 20.9599 16.2605 21.3599 16.2605C22.1199 16.2605 22.5599 16.5805 22.5599 17.1605V18.5605H21.8399V17.2105C21.8399 16.9105 21.6699 16.7705 21.3599 16.7705C21.1999 16.7705 21.0499 16.7905 20.8999 16.8505V18.5705C20.8999 18.5605 20.1799 18.5605 20.1799 18.5605ZM24.1799 18.6105C23.5599 18.6105 23.2399 18.3205 23.2399 17.7405V16.8005H22.8899V16.3205H23.2399V15.8305L23.9599 15.8005V16.3205H24.5399V16.8005H23.9599V17.7405C23.9599 18.0005 24.0899 18.1105 24.3199 18.1105C24.4099 18.1105 24.4999 18.1005 24.5999 18.0805L24.6399 18.5705C24.4799 18.6005 24.3299 18.6205 24.1799 18.6105ZM25.9899 18.6105C25.2799 18.6105 24.9199 18.3105 24.9199 17.9205C24.9199 17.4805 25.3399 17.2305 25.9699 17.2305C26.1299 17.2305 26.2799 17.2405 26.4299 17.2605V17.1605C26.4299 16.8905 26.2499 16.7605 25.8999 16.7605C25.6699 16.7605 25.4299 16.7905 25.2099 16.8605L25.0799 16.3905C25.3699 16.3005 25.6799 16.2605 25.9799 16.2605C26.7499 16.2605 27.1299 16.6005 27.1299 17.2005V18.4205C26.9099 18.5105 26.5099 18.6105 25.9899 18.6105ZM26.4299 18.1205V17.6505C26.3099 17.6305 26.1799 17.6105 26.0599 17.6105C25.8199 17.6105 25.6299 17.6905 25.6299 17.9005C25.6299 18.0805 25.7899 18.1805 26.0599 18.1805C26.1899 18.1805 26.3099 18.1605 26.4299 18.1205ZM29.5899 16.3905L29.4499 16.8705C29.2599 16.8005 29.0599 16.7605 28.8599 16.7605C28.4399 16.7605 28.2099 17.0105 28.2099 17.4205C28.2099 17.8705 28.4499 18.1005 28.8999 18.1005C29.0999 18.1005 29.2999 18.0605 29.4799 17.9905L29.5899 18.4805C29.3499 18.5705 29.0999 18.6105 28.8399 18.6105C27.9799 18.6105 27.4799 18.1605 27.4799 17.4405C27.4799 16.7305 27.9799 16.2605 28.7999 16.2605C29.0699 16.2605 29.3399 16.3105 29.5899 16.3905ZM31.1699 18.6105C30.5499 18.6105 30.2299 18.3205 30.2299 17.7405V16.8005H29.8799V16.3205H30.2299V15.8305L30.9499 15.8005V16.3205H31.5299V16.8005H30.9499V17.7405C30.9499 18.0005 31.0799 18.1105 31.3099 18.1105C31.3999 18.1105 31.4899 18.1005 31.5899 18.0805L31.6299 18.5705C31.4699 18.6005 31.3199 18.6205 31.1699 18.6105Z" fill="#1E3764"/>
<path d="M11.3899 13.95C15.1899 13.95 17.0899 11.81 18.9999 9.67004H6.37988V13.95H11.3899Z" fill="url(#paint0_linear_1013_1448)"/>
<path d="M26.61 5.38965C22.81 5.38965 20.91 7.52965 19 9.66965H31.62V5.38965H26.61Z" fill="url(#paint1_linear_1013_1448)"/>
</g>
<defs>
<linearGradient id="paint0_linear_1013_1448" x1="8.99878" y1="12.1527" x2="17.7998" y2="8.27974" gradientUnits="userSpaceOnUse">
<stop stop-color="#005AB9"/>
<stop offset="1" stop-color="#1E3764"/>
</linearGradient>
<linearGradient id="paint1_linear_1013_1448" x1="20.0863" y1="10.8341" x2="29.4933" y2="7.03215" gradientUnits="userSpaceOnUse">
<stop stop-color="#FBA900"/>
<stop offset="1" stop-color="#FFD800"/>
</linearGradient>
<clipPath id="clip0_1013_1448">
<rect width="38" height="24" fill="white"/>
</clipPath>
</defs>
</svg>
