<svg width="38" height="24" viewBox="0 0 38 24" fill="none" xmlns="http://www.w3.org/2000/svg">
<g clip-path="url(#clip0_1013_1477)">
<path opacity="0.07" d="M35 0H3C1.3 0 0 1.3 0 3V21C0 22.7 1.4 24 3 24H35C36.7 24 38 22.7 38 21V3C38 1.3 36.6 0 35 0Z" fill="black"/>
<path d="M35 1C36.1 1 37 1.9 37 3V21C37 22.1 36.1 23 35 23H3C1.9 23 1 22.1 1 21V3C1 1.9 1.9 1 3 1H35Z" fill="white"/>
<path d="M33.56 20H3L5.32 5H36L33.56 20Z" fill="#393A41"/>
<path d="M13.12 10C11.72 10 10.65 11.24 10.65 12.73C10.65 14.07 11.53 15 12.72 15C14.12 15 15.18 13.72 15.18 12.24C15.18 10.89 14.31 10 13.12 10ZM12.8 13.74C12.26 13.74 11.89 13.32 11.89 12.66C11.89 11.94 12.35 11.25 13.02 11.25C13.56 11.25 13.93 11.69 13.93 12.34C13.94 13.08 13.47 13.74 12.8 13.74ZM21.56 10C20.16 10 19.1 11.24 19.1 12.73C19.1 14.07 19.98 15 21.17 15C22.57 15 23.63 13.72 23.63 12.24C23.64 10.89 22.76 10 21.56 10ZM21.25 13.74C20.71 13.74 20.34 13.32 20.34 12.66C20.34 11.94 20.8 11.25 21.47 11.25C22 11.25 22.38 11.69 22.38 12.34C22.38 13.08 21.92 13.74 21.25 13.74ZM27.76 11.58C27.76 10.68 27.18 10.11 26.12 10.11H24.63L23.98 14.9H25.23L25.44 13.39H25.5L26.16 14.9H27.59L26.67 13.22C27.36 12.94 27.76 12.33 27.76 11.58ZM25.76 12.37H25.58L25.72 11.36H25.89C26.28 11.36 26.48 11.5 26.48 11.81C26.48 12.18 26.19 12.37 25.76 12.37ZM9.21 12.02C8.73 11.73 8.63 11.66 8.63 11.5C8.63 11.31 8.82 11.21 9.08 11.21C9.38 11.21 9.84 11.25 10.29 11.76C10.4 11.36 10.58 10.98 10.82 10.65C10.18 10.22 9.59 10 9.06 10C7.99 10 7.38 10.69 7.38 11.52C7.38 12.24 7.83 12.61 8.36 12.93C8.84 13.22 8.96 13.32 8.96 13.49C8.96 13.68 8.76 13.79 8.5 13.79C8.04 13.79 7.51 13.45 7.2 13.09L7 14.43C7.42 14.8 7.95 15.01 8.51 15C9.61 15 10.21 14.33 10.21 13.47C10.21 12.77 9.82 12.39 9.21 12.02ZM18.47 12.2H17L17.12 11.36H18.69C18.89 10.87 19.2 10.44 19.6 10.1H17.03C16.46 10.1 15.97 10.57 15.89 11.2L15.39 14.89H16.64L16.85 13.38H18.34L18.45 12.56C18.45 12.44 18.46 12.33 18.47 12.2ZM27.79 10.11C28.13 10.42 28.33 10.85 28.38 11.37H29.42L28.94 14.9H30.19L30.67 11.37H31.83L32 10.11H27.79Z" fill="#EDEDED"/>
</g>
<defs>
<clipPath id="clip0_1013_1477">
<rect width="38" height="24" fill="white"/>
</clipPath>
</defs>
</svg>
