<?xml version="1.0" standalone="no"?><svg xmlns="http://www.w3.org/2000/svg" viewBox="0 0 1440 320"><path fill="#CAF0FF" fill-opacity="3" d="M0,160L6.2,133.3C12.3,107,25,53,37,26.7C49.2,0,62,0,74,5.3C86.2,11,98,21,111,58.7C123.1,96,135,160,148,160C160,160,172,96,185,69.3C196.9,43,209,53,222,74.7C233.8,96,246,128,258,133.3C270.8,139,283,117,295,138.7C307.7,160,320,224,332,229.3C344.6,235,357,181,369,170.7C381.5,160,394,192,406,208C418.5,224,431,224,443,218.7C455.4,213,468,203,480,192C492.3,181,505,171,517,160C529.2,149,542,139,554,122.7C566.2,107,578,85,591,112C603.1,139,615,213,628,245.3C640,277,652,267,665,218.7C676.9,171,689,85,702,85.3C713.8,85,726,171,738,202.7C750.8,235,763,213,775,208C787.7,203,800,213,812,197.3C824.6,181,837,139,849,106.7C861.5,75,874,53,886,58.7C898.5,64,911,96,923,106.7C935.4,117,948,107,960,122.7C972.3,139,985,181,997,192C1009.2,203,1022,181,1034,149.3C1046.2,117,1058,75,1071,69.3C1083.1,64,1095,96,1108,96C1120,96,1132,64,1145,53.3C1156.9,43,1169,53,1182,53.3C1193.8,53,1206,43,1218,42.7C1230.8,43,1243,53,1255,101.3C1267.7,149,1280,235,1292,250.7C1304.6,267,1317,213,1329,208C1341.5,203,1354,245,1366,256C1378.5,267,1391,245,1403,240C1415.4,235,1428,245,1434,250.7L1440,256L1440,320L1433.8,320C1427.7,320,1415,320,1403,320C1390.8,320,1378,320,1366,320C1353.8,320,1342,320,1329,320C1316.9,320,1305,320,1292,320C1280,320,1268,320,1255,320C1243.1,320,1231,320,1218,320C1206.2,320,1194,320,1182,320C1169.2,320,1157,320,1145,320C1132.3,320,1120,320,1108,320C1095.4,320,1083,320,1071,320C1058.5,320,1046,320,1034,320C1021.5,320,1009,320,997,320C984.6,320,972,320,960,320C947.7,320,935,320,923,320C910.8,320,898,320,886,320C873.8,320,862,320,849,320C836.9,320,825,320,812,320C800,320,788,320,775,320C763.1,320,751,320,738,320C726.2,320,714,320,702,320C689.2,320,677,320,665,320C652.3,320,640,320,628,320C615.4,320,603,320,591,320C578.5,320,566,320,554,320C541.5,320,529,320,517,320C504.6,320,492,320,480,320C467.7,320,455,320,443,320C430.8,320,418,320,406,320C393.8,320,382,320,369,320C356.9,320,345,320,332,320C320,320,308,320,295,320C283.1,320,271,320,258,320C246.2,320,234,320,222,320C209.2,320,197,320,185,320C172.3,320,160,320,148,320C135.4,320,123,320,111,320C98.5,320,86,320,74,320C61.5,320,49,320,37,320C24.6,320,12,320,6,320L0,320Z"></path></svg>